# xmcd
#
# Track frame offsets: 
#        150
#        17580
#        36517
#        58032
#        75240
#        95527
#        114735
#        132190
#        148932
#        169565
#
# Disc length: 2511 seconds
#
# Revision: 6
# Processed by: cddbd v1.5.2PL0 Copyright (c) Steve Scherf et al.
# Submitted via: ExactAudioCopy v1.3
#
DISCID=8109cd0a
DTITLE=Chicago - 17
DYEAR=1984
DGENRE=West Coast Rock
TTITLE0=Stay The Night
TTITLE1=We Can Stop The Hurtin'
TTITLE2=Hard Habit To Break
TTITLE3=Only You
TTITLE4=Remember The Feeling
TTITLE5=Along Comes A Woman
TTITLE6=You're The Inspiration
TTITLE7=Please Hold On
TTITLE8=Prima Donna
TTITLE9=Once In A Lifetime
EXTD=YEAR: 1984
EXTT0=
EXTT1=
EXTT2=
EXTT3=
EXTT4=
EXTT5=
EXTT6=
EXTT7=
EXTT8=
EXTT9=
PLAYORDER=
